<svg width="14" height="13" viewBox="0 0 14 13" fill="none" xmlns="http://www.w3.org/2000/svg">
<path d="M13.3333 0.999999C13.3333 0.447714 12.8856 -1.14869e-06 12.3333 -1.40157e-06L3.33331 -6.00782e-07C2.78103 -9.37957e-07 2.33331 0.447715 2.33331 0.999999C2.33331 1.55228 2.78103 2 3.33331 2L11.3333 2L11.3333 10C11.3333 10.5523 11.781 11 12.3333 11C12.8856 11 13.3333 10.5523 13.3333 10L13.3333 0.999999ZM1.33331 12L2.04042 12.7071L13.0404 1.70711L12.3333 0.999999L11.6262 0.292892L0.626206 11.2929L1.33331 12Z" fill="#C17A5C"/>
</svg>
